<?xml version="1.0" encoding="UTF-8" standalone="no"?>
<!DOCTYPE svg PUBLIC "-//W3C//DTD SVG 20010904//EN"
              "http://www.w3.org/TR/2001/REC-SVG-20010904/DTD/svg10.dtd">

<svg xmlns="http://www.w3.org/2000/svg"
     viewBox="0 0 452 316">
  <path id="Selection"
        d="M 287.00,316.50
           C 287.00,316.50 443.75,299.50 443.75,299.50
             443.75,299.50 452.00,199.00 452.00,199.00
             452.00,199.00 440.67,165.67 420.10,150.78
             426.07,153.07 450.39,158.13 450.39,158.13
             442.15,134.38 425.63,107.60 408.83,89.00
             408.83,89.00 389.00,69.09 389.00,69.09
             384.84,65.21 380.67,62.44 377.00,58.00
             377.00,58.00 389.00,57.00 389.00,57.00
             379.58,49.34 366.47,44.49 355.00,40.67
             338.71,35.24 321.93,31.43 305.00,28.59
             296.54,27.17 286.47,25.08 278.00,25.00
             278.00,25.00 286.00,18.00 286.00,18.00
             286.00,18.00 254.00,14.09 254.00,14.09
             254.00,14.09 223.00,12.00 223.00,12.00
             223.00,12.00 237.00,1.00 237.00,1.00
             237.00,1.00 210.00,5.40 210.00,5.40
             165.81,14.25 131.57,30.77 102.14,66.00
             98.09,70.85 93.52,77.65 92.48,84.00
             91.29,91.22 95.85,94.34 88.94,100.54
             88.94,100.54 58.00,121.72 58.00,121.72
             35.66,137.33 9.97,160.73 2.75,188.00
             -0.21,199.20 1.78,200.03 2.00,210.00
             -1.85,211.37 56.31,166.19 99.62,150.75
             99.62,150.75 99.88,152.38 99.88,152.38
             95.59,144.41 1.30,207.67 2.62,210.12
             2.62,210.12 21.00,200.78 21.00,200.78
             29.68,196.68 38.81,193.49 48.00,190.72
             61.86,186.54 84.63,182.17 99.00,182.00
             99.00,182.00 118.00,181.04 118.00,181.04
             118.00,181.04 134.00,182.00 134.00,182.00
             141.71,182.01 152.46,182.71 159.00,186.97
             164.58,190.60 165.13,194.41 176.00,201.19
             189.11,209.36 194.72,208.69 208.00,220.29
             220.31,231.04 241.96,256.62 250.50,269.50
             254.75,262.25 254.75,260.00 253.75,253.25
             268.75,253.58 272.00,322.50 287.00,316.50 Z" />
</svg>
